<svg xmlns="http://www.w3.org/2000/svg" width="14" height="14" viewBox="0 0 14 14"><g id="Group_346" data-name="Group 346" transform="translate(-1294 -868)"><path id="Path_37" data-name="Path 37" d="M7 1.244a21.463 21.463 0 012.8.078 3.607 3.607 0 011.322.233 2.732 2.732 0 011.322 1.322 3.607 3.607 0 01.234 1.323c0 .7.078.933.078 2.8a21.463 21.463 0 01-.078 2.8 3.607 3.607 0 01-.233 1.322 2.732 2.732 0 01-1.322 1.322 3.607 3.607 0 01-1.322.233c-.7 0-.933.078-2.8.078a21.463 21.463 0 01-2.8-.078 3.607 3.607 0 01-1.322-.233 2.732 2.732 0 01-1.322-1.322A3.607 3.607 0 011.322 9.8c0-.7-.078-.933-.078-2.8a21.463 21.463 0 01.078-2.8 3.607 3.607 0 01.233-1.322A2.793 2.793 0 012.1 2.1a1.315 1.315 0 01.778-.544A3.607 3.607 0 014.2 1.322 21.463 21.463 0 017 1.244M7 0a22.981 22.981 0 00-2.878.078 4.8 4.8 0 00-1.711.311 3.045 3.045 0 00-1.244.778 3.045 3.045 0 00-.778 1.244 3.544 3.544 0 00-.311 1.711A22.981 22.981 0 000 7a22.981 22.981 0 00.078 2.878 4.8 4.8 0 00.311 1.711 3.045 3.045 0 00.778 1.244 3.045 3.045 0 001.244.778 4.8 4.8 0 001.711.311A22.981 22.981 0 007 14a22.981 22.981 0 002.878-.078 4.8 4.8 0 001.711-.311 3.263 3.263 0 002.022-2.022 4.8 4.8 0 00.311-1.711C13.922 9.1 14 8.867 14 7a22.981 22.981 0 00-.078-2.878 4.8 4.8 0 00-.311-1.711 3.045 3.045 0 00-.778-1.244 3.045 3.045 0 00-1.244-.778A4.8 4.8 0 009.878.078 22.981 22.981 0 007 0m0 3.422A3.52 3.52 0 003.422 7 3.578 3.578 0 107 3.422m0 5.911A2.292 2.292 0 014.667 7 2.292 2.292 0 017 4.667 2.292 2.292 0 019.333 7 2.292 2.292 0 017 9.333m3.733-6.922a.856.856 0 10.856.856.863.863 0 00-.856-.856" transform="translate(1294 868)" fill="#fff" fill-rule="evenodd"/></g></svg>