<svg xmlns="http://www.w3.org/2000/svg" width="14" height="11.356" viewBox="0 0 14 11.356"><g id="Group_347" data-name="Group 347" transform="translate(-1338 -869)"><path id="Path_36" data-name="Path 36" d="M42.433 13.356A8.094 8.094 0 0050.6 5.189V4.8A6.322 6.322 0 0052 3.322a6.457 6.457 0 01-1.633.467 3.026 3.026 0 001.244-1.556 7.134 7.134 0 01-1.789.7 2.778 2.778 0 00-2.1-.933 2.922 2.922 0 00-2.878 2.878 1.516 1.516 0 00.078.622 8.041 8.041 0 01-5.911-3.033 2.979 2.979 0 00-.389 1.478 3.09 3.09 0 001.244 2.411 2.622 2.622 0 01-1.322-.389 2.843 2.843 0 002.333 2.8 2.4 2.4 0 01-.778.078 1.324 1.324 0 01-.544-.078 2.947 2.947 0 002.722 2.022 5.872 5.872 0 01-3.577 1.244 2.153 2.153 0 01-.7-.078 7.341 7.341 0 004.433 1.4" transform="translate(1300 867)" fill="#fff" fill-rule="evenodd"/></g></svg>