<svg xmlns="http://www.w3.org/2000/svg" width="14" height="14" viewBox="0 0 14 14">
  <g id="Group_346" data-name="Group 346" transform="translate(-1215 -2532)">
    <path id="icn-linkedin" d="M11.083,0H2.917A2.917,2.917,0,0,0,0,2.917v8.167A2.917,2.917,0,0,0,2.917,14h8.167A2.917,2.917,0,0,0,14,11.083V2.917A2.917,2.917,0,0,0,11.083,0ZM4.667,11.083H2.917V4.667h1.75ZM3.792,3.927A1.029,1.029,0,1,1,4.813,2.9,1.025,1.025,0,0,1,3.792,3.927Zm7.875,7.156H9.917V7.814c0-1.965-2.333-1.816-2.333,0v3.269H5.833V4.667h1.75V5.7a2.219,2.219,0,0,1,4.083,1.444Z" transform="translate(1215 2532)" fill="#fff"/>
  </g>
</svg>
