<svg xmlns="http://www.w3.org/2000/svg" width="40" height="40" viewBox="0 0 40 40">
  <g id="Group_2" data-name="Group 2" transform="translate(-965 -247)">
    <g id="gdr_logo" transform="translate(965 247)">
      <path id="Path_21" data-name="Path 21" d="M20,40A20,20,0,1,1,40,20,19.983,19.983,0,0,1,20,40ZM20,1.882A18.278,18.278,0,0,0,1.882,20,18.278,18.278,0,0,0,20,38.118,18.118,18.118,0,1,0,20,1.882Z" fill="#bd9b62"/>
      <path id="Path_22" data-name="Path 22" d="M24.529,30.941a2.808,2.808,0,0,1-2.118-1.176,20.287,20.287,0,0,1-3.294-4.235H21V13.059H16.765v.235c1.412.235,1.647.706,1.647,2.118v1.882c0,.471-.235.941-.706.941a3.645,3.645,0,0,1-1.882.471c-.471-.235-.941-.235-1.412-.471-1.647-.706-2.588-3.059-2.588-6.118,0-2.824.706-4.471,2.353-5.412.235-.235.706-.235.941-.471V6A6.615,6.615,0,0,0,9,12.353a5.937,5.937,0,0,0,1.412,4,7.229,7.229,0,0,0,3.529,2.353H10.647v.235c1.412.235,1.647.706,1.647,2.353v7.529c0,1.647-.471,2.118-1.647,2.353v.235H17v-.235c-1.412-.235-2.118-.471-2.118-2.353V18.706h.941c1.647.471,2.588,1.412,2.588,3.059v.471c0,1.176-.235,2.353-1.647,2.824-.235,0-.471.235-.706.235a26.269,26.269,0,0,0,2.353,3.765c.941,1.176,1.647,2.118,3.294,2.118h.706A5.223,5.223,0,0,0,24.529,30.941Z" transform="translate(1.588 1.059)" fill="#bd9b62"/>
      <path id="Path_23" data-name="Path 23" d="M25.612,13.647A9.826,9.826,0,0,0,20.2,12v.235a4.362,4.362,0,0,1,1.647.471,5.849,5.849,0,0,1,3.294,5.647c0,2.588-.941,4.235-2.588,5.176a8.964,8.964,0,0,1-2.353.706v.235A13.887,13.887,0,0,0,23.494,24a6.006,6.006,0,0,0,4.471-5.882A5.687,5.687,0,0,0,25.612,13.647Z" transform="translate(3.565 2.118)" fill="#bd9b62"/>
      <path id="Path_24" data-name="Path 24" d="M19.2,6.471A15.354,15.354,0,0,0,15.2,6v.235a1.779,1.779,0,0,1,.941.235A5.177,5.177,0,0,1,19.2,10h.235Z" transform="translate(2.682 1.059)" fill="#bd9b62"/>
    </g>
  </g>
</svg>
